{
  "source": "C:\\Users\\Peter\\Desktop\\stuff\\MIUN\\quantitative_research\\video_compression\\videos\\BVI-HD\\BVI-HD_CDVL_videos\\ORIG\\Music_1920x1080_30fps.mp4",
  "output": "C:\\Users\\Peter\\Desktop\\stuff\\MIUN\\quantitative_research\\video_compression\\compressed_videos\\BVI-HD\\vp9\\1.5\\Music_1920x1080_30fps_vp9.webm",
  "codec": "vp9",
  "ok": "Input #0, mov,mp4,m4a,3gp,3g2,mj2, from 'C:\\Users\\Peter\\Desktop\\stuff\\MIUN\\quantitative_research\\video_compression\\videos\\BVI-HD\\BVI-HD_CDVL_videos\\ORIG\\Music_1920x1080_30fps.mp4':\n  Metadata:\n    major_brand     : isom\n    minor_version   : 512\n    compatible_brands: isomiso2avc1mp41\n    encoder         : Lavf54.28.101\n  Duration: 00:00:05.00, start: 0.000000, bitrate: 192710 kb/s\n  Stream #0:0[0x1](und): Video: h264 (High 4:4:4 Predictive) (avc1 / 0x31637661), yuv420p(progressive), 1920x1080, 192707 kb/s, 30 fps, 30 tbr, 30 tbn (default)\n    Metadata:\n      handler_name    : VideoHandler\n      vendor_id       : [0][0][0][0]\n[out#0/webm @ 0000029328771280] Codec AVOption b:a (set bitrate (in bits/s)) has not been used for any stream. The most likely reason is either wrong type (e.g. a video option with no video streams) or that it is a private option of some decoder which was not actually used for any stream.\nStream mapping:\n  Stream #0:0 -> #0:0 (h264 (native) -> vp9 (libvpx-vp9))\nPress [q] to stop, [?] for help\n[libvpx-vp9 @ 0000029328d9d780] v1.15.2-100-g40561f514\nOutput #0, webm, to 'C:\\Users\\Peter\\Desktop\\stuff\\MIUN\\quantitative_research\\video_compression\\compressed_videos\\BVI-HD\\vp9\\1.5\\Music_1920x1080_30fps_vp9.webm':\n  Metadata:\n    major_brand     : isom\n    minor_version   : 512\n    compatible_brands: isomiso2avc1mp41\n    encoder         : Lavf62.3.100\n  Stream #0:0(und): Video: vp9, yuv420p(tv, progressive), 1920x1080, q=2-31, 1500 kb/s, 30 fps, 1k tbn (default)\n    Metadata:\n      encoder         : Lavc62.11.100 libvpx-vp9\n      handler_name    : VideoHandler\n      vendor_id       : [0][0][0][0]\n    Side data:\n      cpb: bitrate max/min/avg: 0/0/0 buffer size: 1500000 vbv_delay: N/A\nframe=    0 fps=0.0 q=0.0 size=       0KiB time=N/A bitrate=N/A speed=N/A elapsed=0:00:00.51    \nframe=   10 fps=9.7 q=49.0 size=       1KiB time=00:00:00.33 bitrate=  15.2kbits/s speed=0.322x elapsed=0:00:01.03    \nframe=   19 fps= 12 q=45.0 size=       1KiB time=00:00:00.63 bitrate=   8.0kbits/s speed=0.408x elapsed=0:00:01.55    \nframe=   26 fps= 12 q=48.0 size=       1KiB time=00:00:00.86 bitrate=   5.9kbits/s speed=0.415x elapsed=0:00:02.08    \nframe=   34 fps= 13 q=48.0 size=       1KiB time=00:00:01.13 bitrate=   4.5kbits/s speed=0.434x elapsed=0:00:02.61    \nframe=   40 fps= 13 q=53.0 size=       1KiB time=00:00:01.33 bitrate=   3.8kbits/s speed=0.424x elapsed=0:00:03.14    \nframe=   46 fps= 12 q=50.0 size=       1KiB time=00:00:01.53 bitrate=   3.3kbits/s speed=0.416x elapsed=0:00:03.68    \nframe=   51 fps= 12 q=33.0 size=       1KiB time=00:00:01.70 bitrate=   3.0kbits/s speed=0.405x elapsed=0:00:04.19    \nframe=   58 fps= 12 q=51.0 size=       1KiB time=00:00:01.93 bitrate=   2.6kbits/s speed=0.411x elapsed=0:00:04.70    \nframe=   64 fps= 12 q=51.0 size=       1KiB time=00:00:02.13 bitrate=   2.4kbits/s speed=0.407x elapsed=0:00:05.24    \nframe=   70 fps= 12 q=52.0 size=       1KiB time=00:00:02.33 bitrate=   2.2kbits/s speed=0.403x elapsed=0:00:05.78    \nframe=   76 fps= 12 q=49.0 size=       1KiB time=00:00:02.53 bitrate=   2.0kbits/s speed=0.401x elapsed=0:00:06.31    \nframe=   82 fps= 12 q=51.0 size=       1KiB time=00:00:02.73 bitrate=   1.9kbits/s speed= 0.4x elapsed=0:00:06.83    \nframe=   88 fps= 12 q=51.0 size=       1KiB time=00:00:02.93 bitrate=   1.7kbits/s speed=0.399x elapsed=0:00:07.34    \nframe=   93 fps= 12 q=50.0 size=       1KiB time=00:00:03.10 bitrate=   1.6kbits/s speed=0.394x elapsed=0:00:07.86    \nframe=  100 fps= 12 q=51.0 size=       1KiB time=00:00:03.33 bitrate=   1.5kbits/s speed=0.398x elapsed=0:00:08.37    \nframe=  106 fps= 12 q=52.0 size=       1KiB time=00:00:03.53 bitrate=   1.4kbits/s speed=0.396x elapsed=0:00:08.91    \nframe=  111 fps= 12 q=34.0 size=       1KiB time=00:00:03.70 bitrate=   1.4kbits/s speed=0.392x elapsed=0:00:09.43    \nframe=  118 fps= 12 q=51.0 size=       1KiB time=00:00:03.93 bitrate=   1.3kbits/s speed=0.395x elapsed=0:00:09.95    \nframe=  124 fps= 12 q=51.0 size=       1KiB time=00:00:04.13 bitrate=   1.2kbits/s speed=0.394x elapsed=0:00:10.47    \nframe=  126 fps= 11 q=51.0 size=       1KiB time=00:00:04.20 bitrate=   1.2kbits/s speed=0.381x elapsed=0:00:11.01    \nframe=  126 fps= 11 q=51.0 size=       1KiB time=00:00:04.20 bitrate=   1.2kbits/s speed=0.364x elapsed=0:00:11.54    \nframe=  126 fps= 10 q=51.0 size=       1KiB time=00:00:04.20 bitrate=   1.2kbits/s speed=0.348x elapsed=0:00:12.07    \n[out#0/webm @ 0000029328771280] video:739KiB audio:0KiB subtitle:0KiB other streams:0KiB global headers:0KiB muxing overhead: 0.232026%\nframe=  150 fps= 12 q=44.0 Lsize=     741KiB time=00:00:05.00 bitrate=1214.4kbits/s speed=0.401x elapsed=0:00:12.47    \n",
  "seconds": 12.695374488830566,
  "probe_out": {}
}